<?xml version="1.0" standalone="no"?>
<!DOCTYPE svg PUBLIC "-//W3C//DTD SVG 20010904//EN"
 "http://www.w3.org/TR/2001/REC-SVG-20010904/DTD/svg10.dtd">
<svg version="1.0" xmlns="http://www.w3.org/2000/svg"
 width="512.000000pt" height="512.000000pt" viewBox="0 0 512.000000 512.000000"
 preserveAspectRatio="xMidYMid meet">
<metadata>
Created by potrace 1.11, written by Peter Selinger 2001-2013
</metadata>
<g transform="translate(0.000000,512.000000) scale(0.100000,-0.100000)"
fill="#000000" stroke="none">
<path d="M2464 4640 c-46 -9 -2349 -1157 -2402 -1196 -44 -34 -64 -77 -57
-121 12 -76 -16 -57 840 -579 66 -40 125 -78 132 -84 7 -5 14 -10 17 -10 3 0
71 -41 346 -209 8 -5 244 -150 524 -322 281 -173 533 -321 560 -331 74 -26
217 -23 288 6 29 12 323 188 653 390 519 319 903 554 955 586 54 32 193 119
235 145 28 18 153 94 279 171 139 85 238 152 253 171 46 59 39 127 -19 180
-33 30 -2342 1183 -2403 1199 -55 15 -137 16 -201 4z"/>
<path d="M4840 2699 c-36 -22 -76 -51 -90 -65 l-25 -24 -1 -737 -1 -736 -53
-46 c-131 -112 -135 -297 -9 -404 170 -146 432 -26 431 197 0 93 -36 163 -114
221 l-38 27 0 792 c0 778 -1 818 -29 815 -4 0 -35 -18 -71 -40z"/>
<path d="M4443 2519 c-12 -4 -91 -50 -175 -102 -84 -52 -308 -190 -498 -307
-190 -116 -352 -216 -360 -221 -8 -5 -129 -79 -268 -164 -140 -85 -277 -166
-305 -180 -145 -68 -331 -77 -494 -24 -57 19 -125 57 -448 256 -738 453 -1060
650 -1128 691 -80 47 -125 41 -146 -20 -18 -52 -15 -1010 4 -1082 76 -292 422
-563 945 -741 52 -17 97 -32 100 -32 3 -1 25 -6 50 -13 66 -18 66 -18 175 -40
96 -20 152 -30 185 -34 8 -1 40 -5 70 -9 30 -4 80 -10 110 -13 81 -10 473 -12
565 -3 242 24 434 59 624 114 571 164 992 482 1051 794 15 78 14 1072 -1 1105
-14 30 -27 36 -56 25z"/>
</g>
</svg>
